<?xml version="1.0" standalone="no"?>
<!DOCTYPE svg PUBLIC "-//W3C//DTD SVG 20010904//EN"
 "http://www.w3.org/TR/2001/REC-SVG-20010904/DTD/svg10.dtd">
<svg version="1.0" xmlns="http://www.w3.org/2000/svg"
 width="256.000000pt" height="256.000000pt" viewBox="0 0 256.000000 256.000000"
 preserveAspectRatio="xMidYMid meet">
<metadata>
Created by potrace 1.11, written by Peter Selinger 2001-2013
</metadata>
<g transform="translate(0.000000,256.000000) scale(0.100000,-0.100000)"
fill="#000000" stroke="none">
<path d="M206 2505 c-56 -19 -102 -60 -127 -112 l-23 -48 -1 -1045 c0 -939 1
-1050 16 -1093 20 -60 60 -103 119 -130 43 -19 64 -20 1095 -20 1027 0 1052 1
1096 20 52 24 91 60 115 111 17 35 18 97 19 1077 0 572 -2 1057 -6 1079 -9 53
-57 116 -109 146 l-45 25 -1057 1 c-816 1 -1064 -2 -1092 -11z m2091 -124 c46
-27 88 -79 99 -126 4 -16 7 -457 7 -980 0 -947 0 -950 -21 -991 -26 -51 -71
-90 -120 -104 -26 -8 -334 -10 -999 -8 l-961 3 -44 30 c-23 17 -53 50 -66 73
l-23 41 0 965 c0 812 2 969 14 998 23 53 66 93 120 112 24 8 300 11 993 11
l959 0 42 -24z"/>
<path d="M730 1881 l0 -59 58 -8 c31 -4 61 -8 65 -8 4 -1 11 -6 15 -13 5 -8 8
-918 3 -1005 -1 -12 -15 -18 -53 -23 -90 -11 -88 -10 -88 -74 l0 -58 313 2
c171 1 330 5 352 9 240 45 402 211 441 451 9 55 9 319 0 380 -33 229 -192 403
-411 450 -41 9 -161 13 -377 14 l-318 1 0 -59z m711 -113 c75 -34 129 -85 167
-156 49 -91 59 -155 57 -342 -2 -137 -6 -176 -24 -231 -41 -128 -131 -217
-251 -249 -43 -12 -302 -21 -327 -12 -10 3 -13 115 -13 514 l0 510 168 -4
c154 -3 171 -6 223 -30z"/>
</g>
</svg>
